<svg xmlns="http://www.w3.org/2000/svg" viewBox="0 0 512 512">
  <defs>
    <linearGradient id="bg" x1="0" y1="0" x2="1" y2="1">
      <stop stop-color="#e6ff79"/><stop offset="1" stop-color="#b9dc3f"/>
    </linearGradient>
  </defs>
  <rect width="512" height="512" rx="126" fill="#111315"/>
  <path d="M100 338c18-104 71-169 156-169s138 65 156 169" fill="url(#bg)"/>
  <path d="M151 338c13-72 48-116 105-116s92 44 105 116" fill="#111315"/>
  <path d="M206 338c6-34 23-55 50-55s44 21 50 55" fill="url(#bg)"/>
  <circle cx="145" cy="132" r="21" fill="url(#bg)"/>
  <circle cx="256" cy="103" r="21" fill="url(#bg)"/>
  <circle cx="367" cy="132" r="21" fill="url(#bg)"/>
  <path d="M161 143l54 42m81 0 54-42M256 124v45" fill="none" stroke="#d9f568" stroke-width="14" stroke-linecap="round"/>
</svg>
